<svg id="Layer_1" data-name="Layer 1" xmlns="http://www.w3.org/2000/svg" viewBox="0 0 400 300" width="406" height="306" class="illustration styles_illustrationTablet__1DWOa"><path d="M240.74,174.49s5.7-26.31-8.89-32.69-36,4.29-42.17-12.27,16-25.76,6.47-36-23.32-13-16.17-33.29,21.89-2.45,38.77-22.88,29.14-31.66,51.1-15.83,12.2,23.33,41.84,20.35S352.84,46.06,353.47,69s-19.28,16.57-15.19,33.56,5.61,33.7-20.43,32-41.36,11.56-37.28,39.9Z" fill="#24285b"></path><ellipse cx="198.36" cy="265.94" rx="161.36" ry="11.56" fill="#e6e6e6" opacity="0.45"></ellipse><path d="M161,148.44a51.85,51.85,0,0,1,.69,37.31c-7.37,20.54,8.68,30.91-22.42,33.66S161,148.44,161,148.44Z" fill="#68e1fd"></path><path d="M161,148.44a51.85,51.85,0,0,1,.69,37.31c-7.37,20.54,8.68,30.91-22.42,33.66S161,148.44,161,148.44Z" fill="#fff" opacity="0.46"></path><path d="M140,104.89a32.53,32.53,0,0,1,3,8.13,2.63,2.63,0,0,1-2.2,3,5.79,5.79,0,0,1-5.88-2.22l-3.24-3.58a4.69,4.69,0,0,1-.08-5.42C133.45,101.7,138.58,102,140,104.89Z" fill="#f4a28c"></path><polygon points="134.07 110.9 129.97 127.52 139.29 129.13 138.55 116.71 134.07 110.9" fill="#f4a28c"></polygon><path d="M141.35,107.87l2.14,1.28a.84.84,0,0,1,0,1.41l-1.68,1.14Z" fill="#f4a28c"></path><path d="M138.6,116.05s-3.42-.73-4.56-1.81c0,0,.32,7.79,4.89,8.8Z" fill="#ce8172" opacity="0.31"></path><path d="M135.92,110.66s-.83-1.83-2.15-1.09-.15,3.39,1.85,2.83Z" fill="#f4a28c"></path><path d="M129.47,109.53l1.48,1.6s2.35,4.42,6,6.15,8,.23,7.62-3.17c-.42-3.9-2.76-2.41-6.21-1.8s-3.95-4.08-3.95-4.08a4,4,0,0,0,2.84-2.42l1.77-1.46a3.62,3.62,0,0,0,.1-5.5,4.85,4.85,0,0,0-3.46-1.4C132,97.63,124.91,104.82,129.47,109.53Z" fill="#24285b"></path><path d="M132.54,109.33s-2.81-.9-3.28,1.27,2.64,3.1,4.24,1.48A4.18,4.18,0,0,1,132.54,109.33Z" fill="#f4a28c"></path><rect x="94.37" y="220.88" width="60.54" height="43.26" transform="translate(249.28 485.03) rotate(-180)" fill="#e6e6e6"></rect><polygon points="138.93 264.15 141.84 226.06 153.99 227.91 157.6 242.52 154.91 264.15 138.93 264.15" opacity="0.08"></polygon><path d="M140.45,259.15s1.3,3.6,4.56,3.88,4.11,3.46,1.18,4.29-10.49-2.94-10.49-2.94l.22-4.7Z" fill="#68e1fd"></path><path d="M140.08,128.94l-9.32-1.61s-31,0-36.43,10.67S90,188.14,108,220.58l36.73,1.07s-2-23.83,4.8-36.81S177.61,144.29,140.08,128.94Z" fill="#68e1fd"></path><path d="M108,220.58l18-2.7a17.18,17.18,0,0,1,19.66,18.75l-2.34,22.83h-8.82l.77-21.37a8.09,8.09,0,0,0-9.37-8.28C118.2,231,108.73,230.51,108,220.58Z" fill="#24285b"></path><path d="M158.74,259.15s1.29,3.6,4.55,3.88,4.11,3.46,1.18,4.29S154,264.38,154,264.38l.21-4.7Z" fill="#68e1fd"></path><path d="M111.12,141.8s10.18,8.93,8.14,18.78c-.33,1.59-.68,3.52-1,5.63a56.23,56.23,0,0,0,13.2,46l6.41,7.33-29.88,1-2.55-5-14-23.18Z" opacity="0.08"></path><path d="M126.26,220.58l18-2.7a17.19,17.19,0,0,1,19.67,18.75l-2.35,22.83h-8.81l.76-21.37a8.08,8.08,0,0,0-9.36-8.28C136.48,231,127,230.51,126.26,220.58Z" fill="#24285b"></path><path d="M93.81,139c-6.8,9.58-12.85,30.72-7.6,60.51a20,20,0,0,0,18.43,16.43l28.06,1.77v-9.15l-21.33-3.08A8.19,8.19,0,0,1,104.72,195c3.76-12.37,9.58-34.78,8.07-50.75C111.88,134.52,99.45,131,93.81,139Z" fill="#68e1fd"></path><path d="M93.81,139c-6.8,9.58-12.85,30.72-7.6,60.51a20,20,0,0,0,18.43,16.43l28.06,1.77v-9.15l-21.33-3.08A8.19,8.19,0,0,1,104.72,195c3.76-12.37,9.58-34.78,8.07-50.75C111.88,134.52,99.45,131,93.81,139Z" fill="#fff" opacity="0.46"></path><path d="M132.7,210.74s11.39-.28,9.76,5.65-9.76,1.29-9.76,1.29Z" fill="#f4a28c"></path><polygon points="170.59 219.81 175.18 193.83 142.58 193.83 139.75 215.98 124.8 216.19 124.8 219.81 170.59 219.81" fill="#ffd200"></polygon><circle cx="157.6" cy="206.29" r="3.26" fill="#fff"></circle><rect x="218.75" y="188.41" width="85.62" height="73.43" fill="#e6e6e6"></rect><rect x="210.3" y="171.17" width="101.39" height="17.24" fill="#a5a5a5"></rect><circle cx="271.93" cy="86.38" r="11.93" fill="#68e1fd"></circle><circle cx="233.65" cy="54.15" r="6.32" fill="#68e1fd"></circle><circle cx="215.04" cy="120.44" r="10.06" fill="#68e1fd"></circle><circle cx="283.38" cy="125.56" r="6.66" fill="#68e1fd"></circle><circle cx="318.79" cy="103.99" r="5.68" fill="#fff"></circle><circle cx="271.93" cy="42.95" r="3.35" fill="#fff"></circle><circle cx="237" cy="94.96" r="3.35" fill="#fff"></circle><circle cx="253.69" cy="136.01" r="3.35" fill="#fff"></circle><circle cx="199.33" cy="70.27" r="3.35" fill="#ffd200"></circle><circle cx="318.39" cy="71.3" r="14.26" fill="#ffd200"></circle><path d="M122.76,127.72s-3.92-4.15,6.72-4.6,21.31.84,18.79,9.89S122.76,127.72,122.76,127.72Z" fill="#68e1fd"></path><path d="M122.76,127.72s-3.92-4.15,6.72-4.6,21.31.84,18.79,9.89S122.76,127.72,122.76,127.72Z" fill="#fff" opacity="0.46"></path><rect x="233.65" y="152.81" width="53.79" height="18.35" fill="#c9c9c9"></rect><path d="M65.73,253.93s-8.93-2.44-10.87-10.75c0,0,13.83-2.8,14.23,11.48Z" fill="#68e1fd" opacity="0.58"></path><path d="M66.83,253s-6.24-9.86-.75-19.08c0,0,10.52,6.68,5.84,19.1Z" fill="#68e1fd" opacity="0.73"></path><path d="M68.43,253.05s3.3-10.42,13.26-12.39c0,0,1.87,6.76-6.45,12.42Z" fill="#68e1fd"></path><polygon points="61.96 252.81 63.77 265.2 75.17 265.24 76.85 252.88 61.96 252.81" fill="#24285b"></polygon></svg>